<?xml version="1.0" standalone="no"?><svg xmlns:xlink="http://www.w3.org/1999/xlink" xmlns="http://www.w3.org/2000/svg" viewBox="0 0 1400 840" preserveAspectRatio="xMaxYMax slice"><g transform="scale(1.6470588235294117)"><rect x="0" y="0" width="850" height="510" fill="#ffffff"/><rect x="0" y="0" width="85" height="85" fill="#fff6e1"/><rect x="0" y="0" width="85" height="85" fill="#a1a7fb"/><rect x="85" y="0" width="85" height="85" fill="#ffffff"/><rect x="85" y="0" width="42.5" height="42.5" fill="#fffcf5"/><circle cx="106.25" cy="21.25" r="21.25" fill="#ffdd8f"/><rect x="127.5" y="0" width="42.5" height="42.5" fill="#ffd779"/><rect x="127.5" y="0" width="42.5" height="42.5" fill="#fff5dc"/><rect x="85" y="42.5" width="42.5" height="42.5" fill="#fefeff"/><circle cx="106.25" cy="63.75" r="21.25" fill="#828afa"/><rect x="127.5" y="42.5" width="42.5" height="42.5" fill="#ffd980"/><rect x="127.5" y="42.5" width="42.5" height="42.5" fill="#b2b7fc"/><rect x="170" y="0" width="85" height="85" fill="#ffe3a3"/><path d="M 170 85 A 85 85 0 0 1  255 0 L 255 85" fill="#b6bbfc"/><rect x="255" y="0" width="85" height="85" fill="#ffcc55"/><rect x="255" y="0" width="85" height="85" fill="#c4c8fd"/><rect x="340" y="0" width="85" height="85" fill="#ffffff"/><rect x="340" y="0" width="42.5" height="42.5" fill="#fffcf5"/><path d="M 340 42.5 A 42.5 42.5 0 0 1  382.5 0 L 382.5 42.5" fill="#737cf9"/><rect x="382.5" y="0" width="42.5" height="42.5" fill="#c9ccfd"/><path d="M 382.5 0 A 42.5 42.5 0 0 1 425 42.5 L 382.5 42.5" fill="#ffcd58"/><rect x="340" y="42.5" width="42.5" height="42.5" fill="#fff2d4"/><path d="M 340 42.5 A 42.5 42.5 0 0 0 382.5 85 L 382.5 42.5" fill="#ffe5a8"/><rect x="382.5" y="42.5" width="42.5" height="42.5" fill="#c8cbfd"/><path d="M 382.5 85 A 42.5 42.5 0 0 0 425 42.5 L 382.5 42.5" fill="#ffd779"/><rect x="425" y="0" width="85" height="85" fill="#7c85fa"/><rect x="425" y="0" width="85" height="85" fill="#fff8e6"/><rect x="510" y="0" width="85" height="85" fill="#ffffff"/><rect x="510" y="0" width="42.5" height="42.5" fill="#ffd471"/><path d="M 510 0 A 42.5 42.5 0 0 1 552.5 42.5 L 510 42.5" fill="#ffd675"/><rect x="552.5" y="0" width="42.5" height="42.5" fill="#fffcf6"/><path d="M 552.5 42.5 A 42.5 42.5 0 0 1  595 0 L 595 42.5" fill="#7780f9"/><rect x="510" y="42.5" width="42.5" height="42.5" fill="#ffecc1"/><path d="M 510 85 A 42.5 42.5 0 0 0 552.5 42.5 L 510 42.5" fill="#ffe3a3"/><rect x="552.5" y="42.5" width="42.5" height="42.5" fill="#a0a6fb"/><path d="M 552.5 42.5 A 42.5 42.5 0 0 0 595 85 L 595 42.5" fill="#fffdf7"/><rect x="595" y="0" width="85" height="85" fill="#f5f5ff"/><rect x="595" y="0" width="85" height="85" fill="#f2f2fe"/><rect x="680" y="0" width="85" height="85" fill="#d1d4fd"/><polygon points="680,0 765,0 680,85" fill="#fffefc"/><rect x="765" y="0" width="85" height="85" fill="#ffffff"/><rect x="765" y="0" width="42.5" height="42.5" fill="#828afa"/><path d="M 765 0 A 42.5 42.5 0 0 1 807.5 42.5 L 765 42.5" fill="#fff1d1"/><rect x="807.5" y="0" width="42.5" height="42.5" fill="#9097fa"/><path d="M 807.5 42.5 A 42.5 42.5 0 0 1  850 0 L 850 42.5" fill="#7079f9"/><rect x="765" y="42.5" width="42.5" height="42.5" fill="#ffd77a"/><path d="M 765 85 A 42.5 42.5 0 0 0 807.5 42.5 L 765 42.5" fill="#eff0fe"/><rect x="807.5" y="42.5" width="42.5" height="42.5" fill="#aeb4fc"/><path d="M 807.5 42.5 A 42.5 42.5 0 0 0 850 85 L 850 42.5" fill="#979efb"/><rect x="0" y="85" width="85" height="85" fill="#ffd982"/><polygon points="0,85 85,85 85,170" fill="#636df9"/><rect x="85" y="85" width="85" height="85" fill="#e1e3fe"/><path d="M 85 170 A 85 85 0 0 1  170 85 L 85 170 A 85 85 0 0 0 170 85" fill="#ffd678"/><rect x="170" y="85" width="85" height="85" fill="#ffffff"/><rect x="170" y="85" width="42.5" height="42.5" fill="#ffd779"/><polygon points="170,85 212.5,85 170,127.5" fill="#ffe2a0"/><rect x="212.5" y="85" width="42.5" height="42.5" fill="#dee0fe"/><polygon points="212.5,85 255,85 255,127.5" fill="#ffda83"/><rect x="170" y="127.5" width="42.5" height="42.5" fill="#b8bdfc"/><polygon points="170,127.5 212.5,170 170,170" fill="#fff2d4"/><rect x="212.5" y="127.5" width="42.5" height="42.5" fill="#a2a8fb"/><polygon points="255,127.5 255,170 212.5,170" fill="#8f96fa"/><rect x="255" y="85" width="85" height="85" fill="#848cfa"/><rect x="255" y="85" width="85" height="85" fill="#b2b7fc"/><rect x="340" y="85" width="85" height="85" fill="#cbcffd"/><path d="M 340 170 A 85 85 0 0 1  425 85 L 425 170" fill="#f8f8ff"/><rect x="425" y="85" width="85" height="85" fill="#ffe4a5"/><path d="M 425 170 A 85 85 0 0 1  510 85 L 510 170" fill="#e7e9fe"/><rect x="510" y="85" width="85" height="85" fill="#b9befc"/><path d="M 510 170 A 85 85 0 0 1  595 85 L 510 170 A 85 85 0 0 0 595 85" fill="#d3d6fd"/><rect x="595" y="85" width="85" height="85" fill="#e0e2fe"/><path d="M 595 170 A 85 85 0 0 0 680 85 L 595 85" fill="#ffd87f"/><rect x="680" y="85" width="85" height="85" fill="#ffffff"/><rect x="680" y="85" width="42.5" height="42.5" fill="#afb4fc"/><path d="M 680 127.5 A 42.5 42.5 0 0 1 722.5 85 L 722.5 95.625 A 31.875 31.875 0 0 0 690.625 127.5" fill="#dbdefe"/><rect x="722.5" y="85" width="42.5" height="42.5" fill="#ffe7af"/><path d="M 722.5 85 A 42.5 42.5 0 0 1 765 127.5 L 754.375 127.5 A 31.875 31.875 0 0 0 722.5 95.625" fill="#b6bbfc"/><rect x="680" y="127.5" width="42.5" height="42.5" fill="#ffcc57"/><path d="M 680 127.5 A 42.5 42.5 0 0 0 722.5 170 L 722.5 159.375 A 31.875 31.875 0 0 1 690.625 127.5" fill="#babefc"/><rect x="722.5" y="127.5" width="42.5" height="42.5" fill="#656ff9"/><path d="M 722.5 170 A 42.5 42.5 0 0 0 765 127.5 L 754.375 127.5 A 31.875 31.875 0 0 1 722.5 159.375" fill="#aaaffb"/><rect x="765" y="85" width="85" height="85" fill="#ffffff"/><rect x="765" y="85" width="42.5" height="42.5" fill="#fff2d4"/><path d="M 765 85 A 42.5 42.5 0 0 0 807.5 127.5 L 807.5 85" fill="#ffda84"/><rect x="807.5" y="85" width="42.5" height="42.5" fill="#ffe5a9"/><path d="M 807.5 127.5 A 42.5 42.5 0 0 0 850 85 L 807.5 85" fill="#cfd2fd"/><rect x="765" y="127.5" width="42.5" height="42.5" fill="#ffe19a"/><path d="M 765 170 A 42.5 42.5 0 0 1  807.5 127.5 L 807.5 170" fill="#ffeec7"/><rect x="807.5" y="127.5" width="42.5" height="42.5" fill="#ffeec7"/><path d="M 807.5 127.5 A 42.5 42.5 0 0 1 850 170 L 807.5 170" fill="#b4b9fc"/><rect x="0" y="170" width="85" height="85" fill="#ffd46f"/><polygon points="0,170 85,255 0,255" fill="#5b66f8"/><rect x="85" y="170" width="85" height="85" fill="#ffffff"/><rect x="85" y="170" width="42.5" height="42.5" fill="#ffdc8c"/><polygon points="85,170 127.5,170 85,212.5" fill="#ffcf60"/><rect x="127.5" y="170" width="42.5" height="42.5" fill="#aaaffb"/><polygon points="127.5,170 170,170 170,212.5" fill="#606af8"/><rect x="85" y="212.5" width="42.5" height="42.5" fill="#ffe9b7"/><polygon points="127.5,212.5 127.5,255 85,255" fill="#cccffd"/><rect x="127.5" y="212.5" width="42.5" height="42.5" fill="#e8e9fe"/><polygon points="127.5,212.5 170,255 127.5,255" fill="#ffe4a5"/><rect x="170" y="170" width="85" height="85" fill="#ffffff"/><rect x="170" y="170" width="42.5" height="42.5" fill="#c7cbfd"/><path d="M 170 212.5 A 42.5 42.5 0 0 1 212.5 170 L 212.5 180.625 A 31.875 31.875 0 0 0 180.625 212.5" fill="#d0d3fd"/><rect x="212.5" y="170" width="42.5" height="42.5" fill="#ffde93"/><path d="M 212.5 170 A 42.5 42.5 0 0 1 255 212.5 L 244.375 212.5 A 31.875 31.875 0 0 0 212.5 180.625" fill="#d7d9fd"/><rect x="170" y="212.5" width="42.5" height="42.5" fill="#ffe9b5"/><path d="M 170 212.5 A 42.5 42.5 0 0 0 212.5 255 L 212.5 244.375 A 31.875 31.875 0 0 1 180.625 212.5" fill="#ffde90"/><rect x="212.5" y="212.5" width="42.5" height="42.5" fill="#ffd36d"/><path d="M 212.5 255 A 42.5 42.5 0 0 0 255 212.5 L 244.375 212.5 A 31.875 31.875 0 0 1 212.5 244.375" fill="#eeeffe"/><rect x="255" y="170" width="85" height="85" fill="#ffffff"/><rect x="255" y="170" width="42.5" height="42.5" fill="#6b74f9"/><polygon points="255,170 297.5,170 255,212.5" fill="#b0b5fc"/><rect x="297.5" y="170" width="42.5" height="42.5" fill="#ffefc9"/><polygon points="297.5,170 340,170 340,212.5" fill="#a8aefb"/><rect x="255" y="212.5" width="42.5" height="42.5" fill="#c3c7fd"/><polygon points="255,212.5 297.5,255 255,255" fill="#ffcb53"/><rect x="297.5" y="212.5" width="42.5" height="42.5" fill="#626cf8"/><polygon points="340,212.5 340,255 297.5,255" fill="#5661f8"/><rect x="340" y="170" width="85" height="85" fill="#ffffff"/><rect x="340" y="170" width="42.5" height="42.5" fill="#edeffe"/><path d="M 340 212.5 A 42.5 42.5 0 0 0 382.5 170 L 340 170" fill="#ffd678"/><rect x="382.5" y="170" width="42.5" height="42.5" fill="#cbcefd"/><path d="M 382.5 170 A 42.5 42.5 0 0 0 425 212.5 L 425 170" fill="#ffda85"/><rect x="340" y="212.5" width="42.5" height="42.5" fill="#fffdf8"/><path d="M 340 212.5 A 42.5 42.5 0 0 1 382.5 255 L 340 255" fill="#777ff9"/><rect x="382.5" y="212.5" width="42.5" height="42.5" fill="#d3d6fd"/><path d="M 382.5 255 A 42.5 42.5 0 0 1  425 212.5 L 425 255" fill="#6872f9"/><rect x="425" y="170" width="85" height="85" fill="#ffffff"/><rect x="425" y="170" width="42.5" height="42.5" fill="#848cfa"/><path d="M 425 212.5 A 42.5 42.5 0 0 0 467.5 170 L 425 170" fill="#fffbf1"/><rect x="467.5" y="170" width="42.5" height="42.5" fill="#ffe6ad"/><path d="M 467.5 170 A 42.5 42.5 0 0 0 510 212.5 L 510 170" fill="#d8dbfd"/><rect x="425" y="212.5" width="42.5" height="42.5" fill="#a6acfb"/><path d="M 425 212.5 A 42.5 42.5 0 0 1 467.5 255 L 425 255" fill="#ffd87f"/><rect x="467.5" y="212.5" width="42.5" height="42.5" fill="#cbcefd"/><path d="M 467.5 255 A 42.5 42.5 0 0 1  510 212.5 L 510 255" fill="#fffdf9"/><rect x="510" y="170" width="85" height="85" fill="#ffffff"/><rect x="510" y="170" width="42.5" height="42.5" fill="#b3b8fc"/><path d="M 510 170 A 42.5 42.5 0 0 1 552.5 212.5 L 510 212.5" fill="#e7e9fe"/><rect x="552.5" y="170" width="42.5" height="42.5" fill="#d9dcfd"/><path d="M 552.5 212.5 A 42.5 42.5 0 0 1  595 170 L 595 212.5" fill="#ffdc8a"/><rect x="510" y="212.5" width="42.5" height="42.5" fill="#e9ebfe"/><path d="M 510 255 A 42.5 42.5 0 0 0 552.5 212.5 L 510 212.5" fill="#646ef9"/><rect x="552.5" y="212.5" width="42.5" height="42.5" fill="#949bfb"/><path d="M 552.5 212.5 A 42.5 42.5 0 0 0 595 255 L 595 212.5" fill="#ffd77b"/><rect x="595" y="170" width="85" height="85" fill="#ffffff"/><rect x="595" y="170" width="42.5" height="42.5" fill="#ffce5b"/><polygon points="595,170 637.5,170 595,212.5" fill="#e7e9fe"/><rect x="637.5" y="170" width="42.5" height="42.5" fill="#ffd677"/><polygon points="637.5,170 680,170 680,212.5" fill="#ffcd5a"/><rect x="595" y="212.5" width="42.5" height="42.5" fill="#5f69f8"/><polygon points="595,212.5 637.5,255 595,255" fill="#fff7e3"/><rect x="637.5" y="212.5" width="42.5" height="42.5" fill="#cbcffd"/><polygon points="680,212.5 680,255 637.5,255" fill="#ffd77a"/><rect x="680" y="170" width="85" height="85" fill="#ffd36c"/><polygon points="680,170 765,255 680,255" fill="#5d67f8"/><rect x="765" y="170" width="85" height="85" fill="#ffffff"/><rect x="765" y="170" width="42.5" height="42.5" fill="#d3d6fd"/><polygon points="765,170 807.5,170 765,212.5" fill="#ffd168"/><rect x="807.5" y="170" width="42.5" height="42.5" fill="#dfe1fe"/><polygon points="850,170 850,212.5 807.5,212.5" fill="#ffdc8c"/><rect x="765" y="212.5" width="42.5" height="42.5" fill="#d1d4fd"/><polygon points="765,212.5 807.5,212.5 807.5,255" fill="#ffcb52"/><rect x="807.5" y="212.5" width="42.5" height="42.5" fill="#ffe9b5"/><polygon points="807.5,212.5 850,255 807.5,255" fill="#d2d5fd"/><rect x="0" y="255" width="85" height="85" fill="#ffffff"/><rect x="0" y="255" width="42.5" height="42.5" fill="#7e87fa"/><path d="M 0 297.5 A 42.5 42.5 0 0 1 42.5 255 L 42.5 265.625 A 31.875 31.875 0 0 0 10.625 297.5" fill="#747df9"/><rect x="42.5" y="255" width="42.5" height="42.5" fill="#acb1fc"/><path d="M 42.5 255 A 42.5 42.5 0 0 1 85 297.5 L 74.375 297.5 A 31.875 31.875 0 0 0 42.5 265.625" fill="#a6acfb"/><rect x="0" y="297.5" width="42.5" height="42.5" fill="#ffd165"/><path d="M 0 297.5 A 42.5 42.5 0 0 0 42.5 340 L 42.5 329.375 A 31.875 31.875 0 0 1 10.625 297.5" fill="#ffce5e"/><rect x="42.5" y="297.5" width="42.5" height="42.5" fill="#ffd064"/><path d="M 42.5 340 A 42.5 42.5 0 0 0 85 297.5 L 74.375 297.5 A 31.875 31.875 0 0 1 42.5 329.375" fill="#b0b6fc"/><rect x="85" y="255" width="85" height="85" fill="#fff1d1"/><path d="M 85 340 A 85 85 0 0 0 170 255 L 85 255" fill="#ffe5aa"/><rect x="170" y="255" width="85" height="85" fill="#ffffff"/><rect x="170" y="255" width="42.5" height="42.5" fill="#ffd87e"/><polygon points="170,255 212.5,255 170,297.5" fill="#ffdc8c"/><rect x="212.5" y="255" width="42.5" height="42.5" fill="#ffdc8a"/><polygon points="212.5,255 255,255 255,297.5" fill="#ffdf95"/><rect x="170" y="297.5" width="42.5" height="42.5" fill="#ffd87d"/><polygon points="212.5,297.5 212.5,340 170,340" fill="#fff3d6"/><rect x="212.5" y="297.5" width="42.5" height="42.5" fill="#fff2d3"/><polygon points="212.5,297.5 255,340 212.5,340" fill="#c5c9fd"/><rect x="255" y="255" width="85" height="85" fill="#ffffff"/><rect x="255" y="255" width="42.5" height="42.5" fill="#ffe6ac"/><path d="M 255 297.5 A 42.5 42.5 0 0 0 297.5 255 L 255 255" fill="#ffd573"/><rect x="297.5" y="255" width="42.5" height="42.5" fill="#fff9ea"/><path d="M 297.5 255 A 42.5 42.5 0 0 0 340 297.5 L 340 255" fill="#ffedc3"/><rect x="255" y="297.5" width="42.5" height="42.5" fill="#ffedc3"/><path d="M 255 297.5 A 42.5 42.5 0 0 1 297.5 340 L 255 340" fill="#fdfdff"/><rect x="297.5" y="297.5" width="42.5" height="42.5" fill="#656ff9"/><path d="M 297.5 340 A 42.5 42.5 0 0 1  340 297.5 L 340 340" fill="#a5abfb"/><rect x="340" y="255" width="85" height="85" fill="#ffffff"/><rect x="340" y="255" width="42.5" height="42.5" fill="#636df9"/><polygon points="340,255 382.5,255 340,297.5" fill="#ffcd58"/><rect x="382.5" y="255" width="42.5" height="42.5" fill="#ced1fd"/><polygon points="425,255 425,297.5 382.5,297.5" fill="#fefeff"/><rect x="340" y="297.5" width="42.5" height="42.5" fill="#bcc0fc"/><polygon points="340,297.5 382.5,297.5 382.5,340" fill="#ffe5a9"/><rect x="382.5" y="297.5" width="42.5" height="42.5" fill="#ffdd8e"/><polygon points="382.5,297.5 425,340 382.5,340" fill="#9198fa"/><rect x="425" y="255" width="85" height="85" fill="#f4f5ff"/><path d="M 425 255 A 85 85 0 0 1 510 340 L 425 340" fill="#ffe4a5"/><rect x="510" y="255" width="85" height="85" fill="#ffffff"/><rect x="510" y="255" width="42.5" height="42.5" fill="#dfe1fe"/><path d="M 510 297.5 A 42.5 42.5 0 0 0 552.5 255 L 510 255" fill="#fff5df"/><rect x="552.5" y="255" width="42.5" height="42.5" fill="#c3c7fd"/><path d="M 552.5 255 A 42.5 42.5 0 0 0 595 297.5 L 595 255" fill="#5661f8"/><rect x="510" y="297.5" width="42.5" height="42.5" fill="#d8dbfd"/><path d="M 510 297.5 A 42.5 42.5 0 0 1 552.5 340 L 510 340" fill="#f1f2fe"/><rect x="552.5" y="297.5" width="42.5" height="42.5" fill="#ffd675"/><path d="M 552.5 340 A 42.5 42.5 0 0 1  595 297.5 L 595 340" fill="#6771f9"/><rect x="595" y="255" width="85" height="85" fill="#ffd77b"/><path d="M 595 255 A 85 85 0 0 0 680 340 L 680 255" fill="#8c93fa"/><rect x="680" y="255" width="85" height="85" fill="#a4aafb"/><polygon points="680,255 765,255 765,340" fill="#ffe7af"/><rect x="765" y="255" width="85" height="85" fill="#fff6e0"/><polygon points="765,255 850,340 765,340" fill="#ffffff"/><rect x="0" y="340" width="85" height="85" fill="#ffffff"/><rect x="0" y="340" width="42.5" height="42.5" fill="#ffe8b2"/><path d="M 0 382.5 A 42.5 42.5 0 0 0 42.5 340 L 0 340" fill="#ffe6ac"/><rect x="42.5" y="340" width="42.5" height="42.5" fill="#6b75f9"/><path d="M 42.5 340 A 42.5 42.5 0 0 0 85 382.5 L 85 340" fill="#fff2d5"/><rect x="0" y="382.5" width="42.5" height="42.5" fill="#aeb3fc"/><path d="M 0 382.5 A 42.5 42.5 0 0 1 42.5 425 L 0 425" fill="#727bf9"/><rect x="42.5" y="382.5" width="42.5" height="42.5" fill="#ffcc57"/><path d="M 42.5 425 A 42.5 42.5 0 0 1  85 382.5 L 85 425" fill="#ffe2a0"/><rect x="85" y="340" width="85" height="85" fill="#ffffff"/><rect x="85" y="340" width="42.5" height="42.5" fill="#ffe9b5"/><polygon points="85,340 127.5,340 85,382.5" fill="#d8dafd"/><rect x="127.5" y="340" width="42.5" height="42.5" fill="#ffdf95"/><polygon points="170,340 170,382.5 127.5,382.5" fill="#ffd36e"/><rect x="85" y="382.5" width="42.5" height="42.5" fill="#ffcb51"/><polygon points="85,382.5 127.5,382.5 127.5,425" fill="#ffd168"/><rect x="127.5" y="382.5" width="42.5" height="42.5" fill="#d6d9fd"/><polygon points="127.5,382.5 170,425 127.5,425" fill="#e5e7fe"/><rect x="170" y="340" width="85" height="85" fill="#ffd269"/><path d="M 170 340 A 85 85 0 0 0 255 425 L 255 340" fill="#e1e3fe"/><rect x="255" y="340" width="85" height="85" fill="#ffffff"/><rect x="255" y="340" width="42.5" height="42.5" fill="#ffe29f"/><path d="M 255 382.5 A 42.5 42.5 0 0 0 297.5 340 L 255 340" fill="#ffe5aa"/><rect x="297.5" y="340" width="42.5" height="42.5" fill="#ffd573"/><path d="M 297.5 340 A 42.5 42.5 0 0 0 340 382.5 L 340 340" fill="#ffe6ad"/><rect x="255" y="382.5" width="42.5" height="42.5" fill="#ffd572"/><path d="M 255 382.5 A 42.5 42.5 0 0 1 297.5 425 L 255 425" fill="#ffdc8c"/><rect x="297.5" y="382.5" width="42.5" height="42.5" fill="#626cf8"/><path d="M 297.5 425 A 42.5 42.5 0 0 1  340 382.5 L 340 425" fill="#ced1fd"/><rect x="340" y="340" width="85" height="85" fill="#ffffff"/><rect x="340" y="340" width="42.5" height="42.5" fill="#9ea5fb"/><path d="M 340 340 A 42.5 42.5 0 0 1 382.5 382.5 L 340 382.5" fill="#ffdb86"/><rect x="382.5" y="340" width="42.5" height="42.5" fill="#ffe3a2"/><path d="M 382.5 382.5 A 42.5 42.5 0 0 1  425 340 L 425 382.5" fill="#fffdf8"/><rect x="340" y="382.5" width="42.5" height="42.5" fill="#bbc0fc"/><path d="M 340 425 A 42.5 42.5 0 0 0 382.5 382.5 L 340 382.5" fill="#f7f8ff"/><rect x="382.5" y="382.5" width="42.5" height="42.5" fill="#d8dafd"/><path d="M 382.5 382.5 A 42.5 42.5 0 0 0 425 425 L 425 382.5" fill="#fffefd"/><rect x="425" y="340" width="85" height="85" fill="#5863f8"/><path d="M 425 340 A 85 85 0 0 1  510 425 L 425 340 A 85 85 0 0 0 510 425" fill="#9ea4fb"/><rect x="510" y="340" width="85" height="85" fill="#ffffff"/><rect x="510" y="340" width="42.5" height="42.5" fill="#ffdd8e"/><circle cx="531.25" cy="361.25" r="21.25" fill="#fff1d1"/><rect x="552.5" y="340" width="42.5" height="42.5" fill="#ffdd8e"/><rect x="552.5" y="340" width="42.5" height="42.5" fill="#6973f9"/><rect x="510" y="382.5" width="42.5" height="42.5" fill="#636df9"/><circle cx="531.25" cy="403.75" r="21.25" fill="#fffcf6"/><rect x="552.5" y="382.5" width="42.5" height="42.5" fill="#ffd471"/><rect x="552.5" y="382.5" width="42.5" height="42.5" fill="#b8bcfc"/><rect x="595" y="340" width="85" height="85" fill="#ffffff"/><rect x="595" y="340" width="42.5" height="42.5" fill="#ffd269"/><path d="M 595 340 A 42.5 42.5 0 0 0 637.5 382.5 L 637.5 340" fill="#ffe7ae"/><rect x="637.5" y="340" width="42.5" height="42.5" fill="#e0e2fe"/><path d="M 637.5 382.5 A 42.5 42.5 0 0 0 680 340 L 637.5 340" fill="#ffeab9"/><rect x="595" y="382.5" width="42.5" height="42.5" fill="#f6f7ff"/><path d="M 595 425 A 42.5 42.5 0 0 1  637.5 382.5 L 637.5 425" fill="#ffd472"/><rect x="637.5" y="382.5" width="42.5" height="42.5" fill="#fff3d6"/><path d="M 637.5 382.5 A 42.5 42.5 0 0 1 680 425 L 637.5 425" fill="#989ffb"/><rect x="680" y="340" width="85" height="85" fill="#ffe4a7"/><rect x="680" y="340" width="85" height="85" fill="#ffe4a4"/><rect x="765" y="340" width="85" height="85" fill="#ffd87d"/><path d="M 765 340 A 85 85 0 0 0 850 425 L 850 340" fill="#ffcc55"/><rect x="0" y="425" width="85" height="85" fill="#ffdc8a"/><polygon points="0,425 85,510 0,510" fill="#656ff9"/><rect x="85" y="425" width="85" height="85" fill="#a2a8fb"/><path d="M 85 510 A 85 85 0 0 1  170 425 L 85 510 A 85 85 0 0 0 170 425" fill="#fff5dc"/><rect x="170" y="425" width="85" height="85" fill="#ffffff"/><rect x="170" y="425" width="42.5" height="42.5" fill="#ebedfe"/><circle cx="191.25" cy="446.25" r="21.25" fill="#b8bdfc"/><rect x="212.5" y="425" width="42.5" height="42.5" fill="#a5abfb"/><rect x="212.5" y="425" width="42.5" height="42.5" fill="#ffe19c"/><rect x="170" y="467.5" width="42.5" height="42.5" fill="#afb5fc"/><circle cx="191.25" cy="488.75" r="21.25" fill="#ffd779"/><rect x="212.5" y="467.5" width="42.5" height="42.5" fill="#fffdf8"/><rect x="212.5" y="467.5" width="42.5" height="42.5" fill="#ffe099"/><rect x="255" y="425" width="85" height="85" fill="#ffffff"/><rect x="255" y="425" width="42.5" height="42.5" fill="#f7f8ff"/><polygon points="255,425 297.5,425 255,467.5" fill="#ffd982"/><rect x="297.5" y="425" width="42.5" height="42.5" fill="#b3b8fc"/><polygon points="297.5,425 340,425 340,467.5" fill="#ffedc4"/><rect x="255" y="467.5" width="42.5" height="42.5" fill="#5c66f8"/><polygon points="297.5,467.5 297.5,510 255,510" fill="#fffcf5"/><rect x="297.5" y="467.5" width="42.5" height="42.5" fill="#ffdb88"/><polygon points="297.5,467.5 340,510 297.5,510" fill="#a6abfb"/><rect x="340" y="425" width="85" height="85" fill="#ffffff"/><rect x="340" y="425" width="42.5" height="42.5" fill="#ffebbb"/><polygon points="340,425 382.5,425 340,467.5" fill="#a2a8fb"/><rect x="382.5" y="425" width="42.5" height="42.5" fill="#5964f8"/><polygon points="382.5,425 425,425 425,467.5" fill="#ffca50"/><rect x="340" y="467.5" width="42.5" height="42.5" fill="#fffdf8"/><polygon points="382.5,467.5 382.5,510 340,510" fill="#fffefb"/><rect x="382.5" y="467.5" width="42.5" height="42.5" fill="#fffbf2"/><polygon points="382.5,467.5 425,510 382.5,510" fill="#a0a7fb"/><rect x="425" y="425" width="85" height="85" fill="#ffffff"/><rect x="425" y="425" width="42.5" height="42.5" fill="#fff2d3"/><circle cx="446.25" cy="446.25" r="21.25" fill="#ffeabb"/><rect x="467.5" y="425" width="42.5" height="42.5" fill="#f0f1fe"/><rect x="467.5" y="425" width="42.5" height="42.5" fill="#ffdd8f"/><rect x="425" y="467.5" width="42.5" height="42.5" fill="#e2e4fe"/><circle cx="446.25" cy="488.75" r="21.25" fill="#f2f3fe"/><rect x="467.5" y="467.5" width="42.5" height="42.5" fill="#ffeec5"/><rect x="467.5" y="467.5" width="42.5" height="42.5" fill="#727cf9"/><rect x="510" y="425" width="85" height="85" fill="#7a82f9"/><rect x="510" y="425" width="85" height="85" fill="#646ef9"/><rect x="595" y="425" width="85" height="85" fill="#ffffff"/><rect x="595" y="425" width="42.5" height="42.5" fill="#6872f9"/><path d="M 595 425 A 42.5 42.5 0 0 1 637.5 467.5 L 595 467.5" fill="#ffd87e"/><rect x="637.5" y="425" width="42.5" height="42.5" fill="#e2e4fe"/><path d="M 637.5 467.5 A 42.5 42.5 0 0 1  680 425 L 680 467.5" fill="#fff8e9"/><rect x="595" y="467.5" width="42.5" height="42.5" fill="#fffcf5"/><path d="M 595 510 A 42.5 42.5 0 0 0 637.5 467.5 L 595 467.5" fill="#ffd676"/><rect x="637.5" y="467.5" width="42.5" height="42.5" fill="#ced1fd"/><path d="M 637.5 467.5 A 42.5 42.5 0 0 0 680 510 L 680 467.5" fill="#ffe8b3"/><rect x="680" y="425" width="85" height="85" fill="#ffffff"/><rect x="680" y="425" width="42.5" height="42.5" fill="#fff6e0"/><path d="M 680 467.5 A 42.5 42.5 0 0 0 722.5 425 L 680 425" fill="#ffd064"/><rect x="722.5" y="425" width="42.5" height="42.5" fill="#fdfdff"/><path d="M 722.5 425 A 42.5 42.5 0 0 0 765 467.5 L 765 425" fill="#ffe19a"/><rect x="680" y="467.5" width="42.5" height="42.5" fill="#ffd678"/><path d="M 680 467.5 A 42.5 42.5 0 0 1 722.5 510 L 680 510" fill="#636ef9"/><rect x="722.5" y="467.5" width="42.5" height="42.5" fill="#5d68f8"/><path d="M 722.5 510 A 42.5 42.5 0 0 1  765 467.5 L 765 510" fill="#ffd678"/><rect x="765" y="425" width="85" height="85" fill="#ffffff"/><rect x="765" y="425" width="42.5" height="42.5" fill="#7c84fa"/><polygon points="765,425 807.5,425 765,467.5" fill="#c7cbfd"/><rect x="807.5" y="425" width="42.5" height="42.5" fill="#ffd064"/><polygon points="850,425 850,467.5 807.5,467.5" fill="#fff9ea"/><rect x="765" y="467.5" width="42.5" height="42.5" fill="#ffe8b1"/><polygon points="765,467.5 807.5,467.5 807.5,510" fill="#ffebbd"/><rect x="807.5" y="467.5" width="42.5" height="42.5" fill="#ffda85"/><polygon points="807.5,467.5 850,510 807.5,510" fill="#fff9ec"/></g></svg>